# xmcd CD database file
#
# Track frame offsets:
#	150
#	18287
#	32737
#	51345
#	73180
#	92000
#	104607
#	130502
#	146762
#
# Disc length: 2283 seconds
#
# Revision: 5
# Processed by: cddbd v1.5.2PL0 Copyright (c) Steve Scherf et al.
# Submitted via: CDex 1.51
#
DISCID=7c08e909
DTITLE=SAXON - Denim And Leather (Remastered by Luisonsa)
DYEAR=1981
DGENRE=Hard Rock
TTITLE0=Princess Of The Night
TTITLE1=Never Surrender
TTITLE2=Out Of Control
TTITLE3=Rough And Ready
TTITLE4=Play It Loud
TTITLE5=And The Bands Played On
TTITLE6=Midnight Rider
TTITLE7=Fire In The Sky
TTITLE8=Denim And Leather
EXTD=YEAR: 1981
EXTT0=
EXTT1=
EXTT2=
EXTT3=
EXTT4=
EXTT5=
EXTT6=
EXTT7=
EXTT8=
PLAYORDER=
